<svg width="23" height="24" viewBox="0 0 23 24" fill="none" xmlns="http://www.w3.org/2000/svg">
<path d="M18.6182 18.0037H4.99245C4.63119 18.0033 4.28482 17.8451 4.02937 17.5639C3.77392 17.2827 3.63024 16.9014 3.62988 16.5037V6.00366C3.63024 5.60596 3.77392 5.22466 4.02937 4.94344C4.28482 4.66222 4.63119 4.50406 4.99245 4.50366H18.6182C18.9794 4.50406 19.3258 4.66222 19.5813 4.94344C19.8367 5.22466 19.9804 5.60596 19.9807 6.00366V16.5037C19.9802 16.9013 19.8365 17.2825 19.5811 17.5637C19.3256 17.8448 18.9794 18.0031 18.6182 18.0037ZM4.99245 6.00366V16.5037H18.6182V6.00366H4.99245Z" fill="#1B9145"/>
<path d="M2.26733 19.5037H21.3433V21.0037H2.26733V19.5037Z" fill="#1B9145"/>
</svg>
