<svg width="23" height="24" viewBox="0 0 23 24" fill="none" xmlns="http://www.w3.org/2000/svg">
<path d="M13.9571 4.24988C13.9571 3.17088 12.7999 2.59988 12.0677 3.31588L7.98636 7.30888C7.86179 7.43106 7.70082 7.49866 7.53398 7.49888H4.19205C3.64999 7.49888 3.13012 7.73594 2.74683 8.15789C2.36353 8.57985 2.14819 9.15215 2.14819 9.74888V14.2459C2.14819 14.8426 2.36353 15.4149 2.74683 15.8369C3.13012 16.2588 3.64999 16.4959 4.19205 16.4959H7.53489C7.70173 16.4961 7.8627 16.5637 7.98727 16.6859L12.0668 20.6799C12.799 21.3959 13.9571 20.8239 13.9571 19.7459V4.24988ZM8.89292 8.42988L12.5946 4.80688V19.1889L8.89292 15.5649C8.51884 15.1985 8.0356 14.996 7.53489 14.9959H4.19205C4.01136 14.9959 3.83807 14.9169 3.71031 14.7762C3.58254 14.6356 3.51076 14.4448 3.51076 14.2459V9.74988C3.51076 9.55097 3.58254 9.36021 3.71031 9.21955C3.83807 9.0789 4.01136 8.99988 4.19205 8.99988H7.53489C8.0356 8.99974 8.51884 8.79727 8.89292 8.43088V8.42988Z" fill="#B3B3B3"/>
<path d="M17.5833 5.89678C17.6552 5.83821 17.7369 5.79581 17.8238 5.772C17.9106 5.74819 18.0008 5.74344 18.0893 5.75802C18.1778 5.7726 18.2628 5.80622 18.3395 5.85697C18.4161 5.90771 18.483 5.97459 18.5362 6.05378C19.6945 7.77367 20.3186 9.85873 20.3157 11.9998C20.3182 14.1409 19.6939 16.226 18.5353 17.9458C18.4255 18.0985 18.2661 18.1983 18.0907 18.2239C17.9154 18.2496 17.7378 18.1991 17.5956 18.0833C17.4534 17.9674 17.3578 17.7952 17.3288 17.6031C17.2999 17.4109 17.34 17.2139 17.4407 17.0538C18.4256 15.5921 18.956 13.8197 18.9531 11.9998C18.956 10.1799 18.4256 8.40747 17.4407 6.94578C17.3875 6.86659 17.349 6.77664 17.3273 6.68107C17.3057 6.5855 17.3014 6.48617 17.3146 6.38876C17.3279 6.29135 17.3584 6.19777 17.4045 6.11335C17.4506 6.02894 17.5114 5.95535 17.5833 5.89678Z" fill="#B3B3B3"/>
<path d="M15.9038 8.36978C15.9825 8.32281 16.0688 8.29336 16.1578 8.28312C16.2468 8.27287 16.3368 8.28204 16.4226 8.31008C16.5084 8.33813 16.5883 8.3845 16.6578 8.44657C16.7273 8.50863 16.785 8.58515 16.8277 8.67178C17.3145 9.66178 17.5907 10.7968 17.5907 11.9998C17.5922 13.1618 17.3299 14.3058 16.8277 15.3278C16.7416 15.5028 16.596 15.6331 16.4227 15.6899C16.2495 15.7467 16.0628 15.7255 15.9038 15.6308C15.7448 15.5361 15.6265 15.3758 15.5749 15.185C15.5233 14.9943 15.5426 14.7888 15.6286 14.6138C16.0101 13.8368 16.2281 12.9478 16.2281 11.9998C16.2281 11.0518 16.0101 10.1628 15.6286 9.38578C15.586 9.29911 15.5593 9.20405 15.55 9.10603C15.5408 9.008 15.5492 8.90893 15.5747 8.81448C15.6003 8.72003 15.6425 8.63205 15.699 8.55557C15.7555 8.4791 15.8251 8.41562 15.9038 8.36878V8.36978Z" fill="#B3B3B3"/>
</svg>
