<svg width="23" height="24" viewBox="0 0 23 24" fill="none" xmlns="http://www.w3.org/2000/svg">
<path d="M15.3899 4H19.0234V8" stroke="#B3B3B3" stroke-width="2" stroke-linecap="round" stroke-linejoin="round"/>
<path d="M13.573 10L19.0233 4" stroke="#B3B3B3" stroke-width="2" stroke-linecap="round" stroke-linejoin="round"/>
<path d="M8.12278 20H4.48926V16" stroke="#B3B3B3" stroke-width="2" stroke-linecap="round" stroke-linejoin="round"/>
<path d="M4.48926 20L9.93954 14" stroke="#B3B3B3" stroke-width="2" stroke-linecap="round" stroke-linejoin="round"/>
<path d="M14.4813 4.24988C14.4813 3.17088 13.324 2.59988 12.5919 3.31588L8.51053 7.30888C8.38596 7.43106 8.22499 7.49866 8.05815 7.49888H4.71622C4.17416 7.49888 3.65429 7.73594 3.271 8.15789C2.8877 8.57985 2.67236 9.15215 2.67236 9.74888V14.2459C2.67236 14.8426 2.8877 15.4149 3.271 15.8369C3.65429 16.2588 4.17416 16.4959 4.71622 16.4959H8.05906C8.2259 16.4961 8.38687 16.5637 8.51144 16.6859L12.591 20.6799C13.3231 21.3959 14.4813 20.8239 14.4813 19.7459V4.24988ZM9.41709 8.42988L13.1187 4.80688V19.1889L9.41709 15.5649C9.04301 15.1985 8.55977 14.996 8.05906 14.9959H4.71622C4.53553 14.9959 4.36224 14.9169 4.23448 14.7762C4.10671 14.6356 4.03493 14.4448 4.03493 14.2459V9.74988C4.03493 9.55097 4.10671 9.36021 4.23448 9.21955C4.36224 9.0789 4.53553 8.99988 4.71622 8.99988H8.05906C8.55977 8.99974 9.04301 8.79727 9.41709 8.43088V8.42988Z" fill="black"/>
<path d="M18.1075 5.89678C18.1794 5.83821 18.2611 5.79581 18.3479 5.772C18.4347 5.74819 18.525 5.74344 18.6135 5.75802C18.7019 5.7726 18.7869 5.80622 18.8636 5.85697C18.9403 5.90771 19.0072 5.97459 19.0604 6.05378C20.2187 7.77367 20.8427 9.85873 20.8399 11.9998C20.8424 14.1409 20.2181 16.226 19.0595 17.9458C18.9497 18.0985 18.7903 18.1983 18.6149 18.2239C18.4395 18.2496 18.262 18.1991 18.1198 18.0833C17.9776 17.9674 17.8819 17.7952 17.853 17.6031C17.8241 17.4109 17.8642 17.2139 17.9649 17.0538C18.9497 15.5921 19.4801 13.8197 19.4773 11.9998C19.4801 10.1799 18.9497 8.40747 17.9649 6.94578C17.9116 6.86659 17.8731 6.77664 17.8515 6.68107C17.8299 6.5855 17.8256 6.48617 17.8388 6.38876C17.852 6.29135 17.8826 6.19777 17.9287 6.11335C17.9748 6.02894 18.0355 5.95535 18.1075 5.89678Z" fill="black"/>
<path d="M16.428 8.36978C16.5067 8.32281 16.593 8.29336 16.682 8.28312C16.771 8.27287 16.861 8.28204 16.9467 8.31008C17.0325 8.33813 17.1125 8.3845 17.182 8.44657C17.2515 8.50863 17.3092 8.58515 17.3518 8.67178C17.8387 9.66178 18.1149 10.7968 18.1149 11.9998C18.1164 13.1618 17.8541 14.3058 17.3518 15.3278C17.2658 15.5028 17.1202 15.6331 16.9469 15.6899C16.7737 15.7467 16.587 15.7255 16.428 15.6308C16.269 15.5361 16.1507 15.3758 16.0991 15.185C16.0474 14.9943 16.0668 14.7888 16.1528 14.6138C16.5343 13.8368 16.7523 12.9478 16.7523 11.9998C16.7523 11.0518 16.5343 10.1628 16.1528 9.38578C16.1101 9.29911 16.0834 9.20405 16.0742 9.10603C16.065 9.008 16.0734 8.90893 16.0989 8.81448C16.1245 8.72003 16.1667 8.63205 16.2232 8.55557C16.2796 8.4791 16.3492 8.41562 16.428 8.36878V8.36978Z" fill="black"/>
</svg>
